# xmcd
#
# Track frame offsets: 
#        150
#        15203
#        26761
#        40563
#        52858
#        66047
#        78686
#        88523
#
# Disc length: 1405 seconds
#
# Revision: 0
# Processed by: cddbd v1.5.1PL2 Copyright (c) Steve Scherf et al.
# Submitted via: ExactAudioCopy v0.95b4
#
DISCID=50057b08
DTITLE=Johnny Lee - Party Time (tape)
DYEAR=1981
DGENRE=
TTITLE0=Country Party
TTITLE1=Ramblin' Rose
TTITLE2=Dear Alice
TTITLE3=This Time
TTITLE4=Blueberry Hill
TTITLE5=Ruby Louise
TTITLE6=Red Sails in the Sunset
TTITLE7=Your Song
EXTD=
EXTT0=
EXTT1=
EXTT2=
EXTT3=
EXTT4=
EXTT5=
EXTT6=
EXTT7=
PLAYORDER=
